<svg xmlns="http://www.w3.org/2000/svg" xmlns:xlink="http://www.w3.org/1999/xlink" style="width:0;height:0;visibility:hidden;">
   <defs/>
   <symbol id="rd-icon-spotter" viewBox="0 0 750 750">
      <defs>
         <clipPath id="01c174890c"><path d="M 70.5 76 L 674 76 L 674 679 L 70.5 679 Z M 70.5 76 " clip-rule="nonzero"/></clipPath>
         <clipPath id="2d562bc3d7"><path d="M 344.296875 349.886719 L 565.546875 349.886719 L 565.546875 571.136719 L 344.296875 571.136719 Z M 344.296875 349.886719 " clip-rule="nonzero"/></clipPath>
         <clipPath id="0504d471f3"><path d="M 122.992188 128.613281 L 346.492188 128.613281 L 346.492188 352.113281 L 122.992188 352.113281 Z M 122.992188 128.613281 " clip-rule="nonzero"/></clipPath>
         <clipPath id="666a9362b2"><path d="M 344.273438 128.601562 L 565.523438 128.601562 L 565.523438 349.851562 L 344.273438 349.851562 Z M 344.273438 128.601562 " clip-rule="nonzero"/></clipPath>
         <clipPath id="612b30acd6"><path d="M 123.015625 349.910156 L 344.265625 349.910156 L 344.265625 571.160156 L 123.015625 571.160156 Z M 123.015625 349.910156 " clip-rule="nonzero"/></clipPath>
      </defs>
      <g clip-path="url(#01c174890c)"><path fill="#000000" d="M 668.875 652.949219 L 551.445312 535.523438 C 596.375 484.46875 621.902344 420.136719 621.902344 351.722656 C 621.902344 199.574219 498.347656 76.019531 346.199219 76.019531 C 194.054688 76.019531 70.5 199.574219 70.5 351.722656 C 70.5 503.867188 194.054688 627.421875 346.199219 627.421875 C 414.617188 627.421875 478.945312 602.917969 530 556.964844 L 647.429688 674.394531 C 650.492188 677.457031 654.578125 678.480469 658.660156 678.480469 C 662.746094 678.480469 666.832031 676.4375 669.894531 674.394531 C 675 668.269531 675 659.078125 668.875 652.949219 Z M 346.199219 596.789062 C 211.414062 596.789062 101.132812 486.507812 101.132812 351.722656 C 101.132812 216.933594 211.414062 106.65625 346.199219 106.65625 C 480.988281 106.65625 591.269531 216.933594 591.269531 351.722656 C 591.269531 486.507812 480.988281 596.789062 346.199219 596.789062 Z M 346.199219 596.789062 " fill-opacity="1" fill-rule="nonzero"/></g>
      <g clip-path="url(#2d562bc3d7)"><path fill="#6f7dff" d="M 565.546875 349.886719 L 344.273438 349.886719 L 344.273438 571.160156 C 466.480469 571.160156 565.546875 472.09375 565.546875 349.886719 Z M 565.546875 349.886719 " fill-opacity="1" fill-rule="nonzero"/></g>
      <g clip-path="url(#0504d471f3)"><path fill="#8c4ffb" d="M 122.992188 352.113281 L 346.503906 352.113281 L 346.503906 128.601562 C 223.058594 128.601562 122.992188 228.671875 122.992188 352.113281 Z M 122.992188 352.113281 " fill-opacity="1" fill-rule="nonzero"/></g>
      <g clip-path="url(#666a9362b2)"><path fill="#26eadd" d="M 344.273438 128.601562 L 344.273438 349.875 L 565.546875 349.875 C 565.546875 227.667969 466.480469 128.601562 344.273438 128.601562 Z M 344.273438 128.601562 " fill-opacity="1" fill-rule="nonzero"/></g>
      <g clip-path="url(#612b30acd6)"><path fill="#5447b5" d="M 344.265625 571.160156 L 344.265625 349.886719 L 122.992188 349.886719 C 122.992188 472.09375 222.058594 571.160156 344.265625 571.160156 Z M 344.265625 571.160156 " fill-opacity="1" fill-rule="nonzero"/></g>
   </symbol>
</svg>
